<?xml version="1.0" encoding="UTF-8" standalone="no"?>
<svg
   xmlns:dc="http://purl.org/dc/elements/1.1/"
   xmlns:cc="http://creativecommons.org/ns#"
   xmlns:rdf="http://www.w3.org/1999/02/22-rdf-syntax-ns#"
   xmlns:svg="http://www.w3.org/2000/svg"
   xmlns="http://www.w3.org/2000/svg"
   viewBox="0 0 400 400"
   height="400"
   width="400"
   xml:space="preserve"
   id="svg2"
   version="1.1"><metadata
     id="metadata8"><rdf:RDF><cc:Work
         rdf:about=""><dc:format>image/svg+xml</dc:format><dc:type
           rdf:resource="http://purl.org/dc/dcmitype/StillImage" /><dc:title></dc:title></cc:Work></rdf:RDF></metadata><defs
     id="defs6"><clipPath
       id="clipPath18"
       clipPathUnits="userSpaceOnUse"><path
         id="path16"
         d="M 0,300 H 500 V 0 H 0 Z" /></clipPath></defs><g
     transform="matrix(1.3333333,0,0,-1.3333333,0,400)"
     id="g10"><g
       transform="translate(-94.5)"
       id="g12"><g
         clip-path="url(#clipPath18)"
         id="g14"><g
           transform="translate(241.9502,123.7998)"
           id="g20"><path
             id="path22"
             style="fill:#3897fb;fill-opacity:1;fill-rule:evenodd;stroke:none"
             d="m 0,0 -61.7,-35.8 24.8,57.25 z M 8.899,99.45 67.35,-35.8 -35.8,24.15 -3.25,99.45 c 2.033,2 4.05,2.834 6.05,2.5 2.033,0.367 4.067,-0.467 6.099,-2.5" /></g><g
           transform="translate(320.5996,224.7998)"
           id="g24"><path
             id="path26"
             style="fill:none;stroke:#3897fb;stroke-width:12;stroke-linecap:round;stroke-linejoin:round;stroke-miterlimit:3;stroke-dasharray:none;stroke-opacity:1"
             d="m 0,0 c 20.9,-20.9 31.351,-46.1 31.351,-75.6 0,-29.533 -10.451,-54.75 -31.351,-75.65 -20.899,-20.899 -46.116,-31.35 -75.649,-31.35 -29.5,0 -54.701,10.451 -75.601,31.35 -20.899,20.9 -31.35,46.117 -31.35,75.65 0,29.5 10.451,54.7 31.35,75.6 20.9,20.9 46.101,31.35 75.601,31.35 C -46.116,31.35 -20.899,20.9 0,0 Z" /></g></g></g></g></svg>